<svg width="133" height="26" viewBox="0 0 133 26" fill="none" xmlns="http://www.w3.org/2000/svg">
<path fill-rule="evenodd" clip-rule="evenodd" d="M26.8313 25.9141V0H22.6948V5.11375C20.4031 2.26736 16.914 0.425761 12.9924 0.354068C12.8259 0.35096 12.6596 0.351117 12.4935 0.354515C5.56988 0.493525 0 6.14955 0 13.1065C0 20.1507 5.71043 25.8611 12.7546 25.8611C16.7727 25.8611 20.3569 24.003 22.6948 21.0993V25.9141H26.8313ZM12.7546 21.7144C14.7255 21.7144 16.5417 21.0521 17.9927 19.9378L17.9924 19.9374C19.8041 18.5483 20.9897 16.4963 21.2885 14.233C21.3311 13.9108 21.3551 13.588 21.3611 13.2661C21.3621 13.213 21.3625 13.1598 21.3625 13.1065C21.3625 13.0478 21.362 12.9892 21.3608 12.9308C21.3236 11.1087 20.7081 9.33272 19.5856 7.86868C18.1964 6.057 16.1444 4.87136 13.8811 4.57259C13.5592 4.5301 13.2369 4.50604 12.9154 4.50003C12.8619 4.49905 12.8083 4.49856 12.7546 4.49856C12.6956 4.49856 12.6368 4.49915 12.5781 4.50033C10.7563 4.53769 8.9806 5.15312 7.51678 6.27555L7.51652 6.2752C5.4675 7.8487 4.14666 10.3234 4.14666 13.1065C4.14666 17.8605 8.00057 21.7144 12.7546 21.7144ZM66.1679 22.8665C67.6363 23.8175 69.3901 24.293 71.4295 24.293C72.8163 24.293 74.0127 24.0621 75.0188 23.6001C76.052 23.1382 76.9222 22.5404 77.6291 21.8068C78.3361 21.0731 78.8935 20.3259 79.3014 19.565H79.383V23.8039H83.1762V13.2882C83.1762 11.2775 82.7411 9.45693 81.871 7.82659C81.0281 6.19625 79.8045 4.90557 78.2002 3.95454C76.6231 3.00351 74.7468 2.52799 72.5715 2.52799C70.2875 2.52799 68.3297 3.01709 66.6982 3.99529C65.0667 4.94633 63.8159 6.2506 62.9458 7.90811C62.0756 9.53845 61.6406 11.3726 61.6406 13.4105C61.6406 15.4484 62.0348 17.2961 62.8234 18.9537C63.6119 20.584 64.7268 21.8883 66.1679 22.8665ZM75.9977 20.0541C74.9644 20.7334 73.768 21.0731 72.4084 21.0731C70.94 21.0731 69.6892 20.7334 68.656 20.0541C67.6227 19.3748 66.8341 18.4646 66.2903 17.3233C65.7465 16.1549 65.4746 14.8642 65.4746 13.4513C65.4746 12.0111 65.7465 10.7069 66.2903 9.53845C66.8613 8.37004 67.6635 7.44618 68.6968 6.76687C69.7572 6.08756 71.0216 5.74791 72.49 5.74791C73.8767 5.74791 75.0867 6.08756 76.12 6.76687C77.1533 7.41901 77.9418 8.31569 78.4857 9.45693C79.0567 10.5982 79.3422 11.8889 79.3422 13.329C79.3422 14.7963 79.0431 16.1142 78.4449 17.2826C77.8739 18.451 77.0581 19.3748 75.9977 20.0541ZM32.3088 23.8039V8.92707C32.3088 7.07935 32.8255 5.63922 33.8588 4.60667C34.9192 3.54695 36.374 3.01709 38.223 3.01709H42.5056V6.23701H38.9164C37.9919 6.23701 37.2849 6.50873 36.7954 7.05218C36.306 7.56845 36.0613 8.27493 36.0613 9.17162V23.8039H32.3088ZM56.0483 23.8039C53.9001 23.8039 51.9831 23.342 50.2973 22.4181C48.6114 21.4943 47.279 20.2579 46.3001 18.7091C45.3212 17.1331 44.8318 15.3669 44.8318 13.4105C44.8318 11.4541 45.3212 9.70148 46.3001 8.15266C47.279 6.57667 48.6114 5.32674 50.2973 4.40288C51.9831 3.47902 53.9001 3.01709 56.0483 3.01709H58.4955V6.23701H55.9259C54.5391 6.23701 53.2883 6.56308 52.1735 7.21522C51.0858 7.84018 50.2157 8.69611 49.5631 9.783C48.9377 10.8699 48.625 12.0791 48.625 13.4105C48.625 14.7419 48.9377 15.9511 49.5631 17.038C50.2157 18.1249 51.0858 18.9944 52.1735 19.6466C53.2883 20.2715 54.5391 20.584 55.9259 20.584H58.4955V23.8039H56.0483ZM89.1509 23.8039V11.7802C89.1509 9.93245 89.5588 8.3157 90.3745 6.92991C91.2174 5.54412 92.3731 4.47081 93.8414 3.70999C95.3098 2.92199 96.982 2.52799 98.8582 2.52799C100.762 2.52799 102.434 2.92199 103.875 3.70999C105.343 4.47081 106.485 5.54412 107.301 6.92991C108.144 8.3157 108.566 9.93245 108.566 11.7802V23.8039H104.813V11.8209C104.813 10.571 104.528 9.49769 103.957 8.601C103.413 7.67715 102.679 6.97066 101.754 6.48156C100.857 5.99246 99.8915 5.74791 98.8582 5.74791C97.825 5.74791 96.8461 5.99246 95.9216 6.48156C95.0242 6.97066 94.2901 7.67715 93.7191 8.601C93.1752 9.49769 92.9033 10.571 92.9033 11.8209V23.8039H89.1509ZM118.969 22.5404C120.737 23.3827 122.776 23.8039 125.087 23.8039H130.43V20.584H125.006C123.673 20.584 122.45 20.3666 121.335 19.9319C120.247 19.4699 119.35 18.8042 118.643 17.9347C117.936 17.038 117.514 15.9511 117.378 14.674H132.878C132.959 14.1306 133 13.5328 133 12.8806C133 10.9514 132.646 9.21238 131.94 7.66356C131.233 6.08756 130.158 4.83764 128.717 3.91378C127.303 2.98992 125.522 2.52799 123.374 2.52799C121.389 2.52799 119.649 3.00351 118.153 3.95454C116.658 4.90557 115.489 6.20984 114.646 7.86735C113.803 9.49769 113.381 11.3454 113.381 13.4105C113.381 15.5028 113.871 17.3369 114.85 18.9129C115.856 20.4617 117.229 21.6709 118.969 22.5404ZM129.207 12.0247H117.338C117.392 10.9922 117.65 10.0004 118.113 9.04935C118.602 8.07114 119.282 7.26956 120.152 6.6446C121.049 5.99246 122.123 5.66639 123.374 5.66639C124.87 5.66639 126.039 6.01963 126.882 6.72611C127.725 7.40542 128.323 8.23418 128.677 9.21238C129.03 10.1906 129.207 11.128 129.207 12.0247Z" fill="url(#paint0_linear)"/>
<defs>
<linearGradient id="paint0_linear" x1="1.84083" y1="25.7716" x2="133" y2="25.7716" gradientUnits="userSpaceOnUse">
<stop stop-color="#013A63"/>
<stop offset="0.932292" stop-color="#1FA1D3"/>
</linearGradient>
</defs>
</svg>
