<svg width="11501" height="2400" viewBox="0 0 11501 2400" fill="none" xmlns="http://www.w3.org/2000/svg">
<path d="M2926 2083.89V817.068C2926 659.726 2969.99 537.093 3057.98 449.167C3148.29 358.927 3272.16 313.807 3429.61 313.807H3794.3V587.997H3488.66C3409.93 587.997 3349.73 611.136 3308.05 657.412C3266.37 701.375 3245.53 761.535 3245.53 837.892V2083.89H2926Z" fill="#21A8F3"/>
<path d="M4947.51 2083.89C4764.59 2083.89 4601.35 2044.56 4457.79 1965.89C4314.23 1887.22 4200.77 1781.94 4117.42 1650.05C4034.06 1515.85 3992.38 1365.45 3992.38 1198.85C3992.38 1032.25 4034.06 883.012 4117.42 751.123C4200.77 616.92 4314.23 510.484 4457.79 431.813C4601.35 353.143 4764.59 313.807 4947.51 313.807H5155.91V587.997H4937.09C4819.01 587.997 4712.49 615.763 4617.56 671.296C4524.94 724.514 4450.85 797.4 4395.27 889.953C4342.02 982.507 4315.39 1085.47 4315.39 1198.85C4315.39 1312.23 4342.02 1415.2 4395.27 1507.75C4450.85 1600.3 4524.94 1674.35 4617.56 1729.88C4712.49 1783.1 4819.01 1809.7 4937.09 1809.7H5155.91V2083.89H4947.51Z" fill="#21A8F3"/>
<path d="M6257.29 2125.54C6083.63 2125.54 5934.28 2085.05 5809.25 2004.07C5686.53 1920.77 5591.59 1809.7 5524.45 1670.87C5457.3 1529.73 5423.72 1372.39 5423.72 1198.85C5423.72 1025.31 5460.77 869.129 5534.87 730.298C5608.96 589.154 5715.47 478.09 5854.4 397.105C5993.33 313.807 6160.04 272.158 6354.54 272.158C6539.78 272.158 6699.55 312.65 6833.84 393.635C6970.46 474.619 7074.65 584.526 7146.43 723.357C7220.53 862.187 7257.58 1017.21 7257.58 1188.44V2083.89H6934.57V1722.94H6927.62C6892.89 1787.72 6845.42 1851.35 6785.22 1913.83C6725.02 1976.3 6650.92 2027.21 6562.93 2066.54C6477.26 2105.88 6375.38 2125.54 6257.29 2125.54ZM6340.65 1851.35C6456.42 1851.35 6558.3 1822.43 6646.29 1764.58C6736.59 1706.74 6806.06 1628.07 6854.68 1528.57C6905.62 1429.08 6931.09 1316.86 6931.09 1191.91C6931.09 1069.28 6906.78 959.369 6858.16 862.187C6811.85 765.006 6744.7 688.649 6656.71 633.117C6568.72 575.271 6465.68 546.348 6347.6 546.348C6222.56 546.348 6114.89 575.271 6024.59 633.117C5936.6 690.963 5868.29 769.634 5819.67 869.129C5773.36 968.624 5750.2 1079.69 5750.2 1202.32C5750.2 1322.64 5773.36 1432.55 5819.67 1532.04C5865.98 1629.23 5933.13 1706.74 6021.11 1764.58C6109.1 1822.43 6215.61 1851.35 6340.65 1851.35Z" fill="#21A8F3"/>
<path d="M7766.35 2083.89V1060.02C7766.35 902.68 7801.08 765.006 7870.54 647C7942.32 528.994 8040.73 437.598 8165.76 372.81C8290.8 305.709 8433.2 272.158 8592.97 272.158C8755.05 272.158 8897.45 305.709 9020.17 372.81C9145.21 437.598 9242.46 528.994 9311.92 647C9383.7 765.006 9419.59 902.68 9419.59 1060.02V2083.89H9100.06V1063.49C9100.06 957.055 9075.74 865.658 9027.12 789.301C8980.81 710.631 8918.29 650.471 8839.57 608.822C8763.16 567.173 8680.96 546.348 8592.97 546.348C8504.98 546.348 8421.62 567.173 8342.9 608.822C8266.49 650.471 8203.97 710.631 8155.35 789.301C8109.04 865.658 8085.88 957.055 8085.88 1063.49V2083.89H7766.35Z" fill="#21A8F3"/>
<path d="M10826.5 2083.89C10629.7 2083.89 10456 2048.03 10305.5 1976.3C10157.3 1902.26 10040.4 1799.29 9954.71 1667.4C9871.35 1533.2 9829.67 1377.02 9829.67 1198.85C9829.67 1023 9865.56 865.658 9937.34 726.828C10009.1 585.684 10108.7 474.619 10236 393.635C10363.4 312.65 10511.6 272.158 10680.6 272.158C10863.5 272.158 11015.2 311.493 11135.6 390.164C11258.3 468.834 11349.8 575.271 11410 709.474C11470.2 841.363 11500.3 989.449 11500.3 1153.73C11500.3 1209.26 11496.8 1260.17 11489.9 1306.44H10170C10181.6 1415.2 10217.5 1507.75 10277.7 1584.11C10337.9 1658.15 10414.3 1714.84 10506.9 1754.17C10601.9 1791.19 10706.1 1809.7 10819.5 1809.7H11281.5V2083.89H10826.5ZM10166.6 1080.85H11177.3C11177.3 1004.49 11162.2 924.661 11132.1 841.363C11102 758.065 11051.1 687.492 10979.3 629.646C10907.5 569.487 10808 539.407 10680.6 539.407C10574.1 539.407 10482.6 567.173 10406.2 622.705C10332.1 675.923 10274.2 744.181 10232.6 827.48C10193.2 908.464 10171.2 992.919 10166.6 1080.85Z" fill="#21A8F3"/>
<path fill-rule="evenodd" clip-rule="evenodd" d="M2090.85 2399.78H2458.63V0H2090.85V396.172C1871.25 152.897 1553.43 2.6598e-05 1199.89 2.6598e-05C537.21 2.6598e-05 0 537.21 0 1199.89C0 1862.57 537.21 2399.78 1199.89 2399.78C1553.43 2399.78 1871.25 2246.89 2090.85 2003.61V2399.78ZM1199.89 2039.82C736.015 2039.82 359.968 1663.77 359.968 1199.89C359.968 736.015 736.015 359.968 1199.89 359.968C1663.77 359.968 2039.82 736.015 2039.82 1199.89C2039.82 1663.77 1663.77 2039.82 1199.89 2039.82Z" fill="url(#paint0_linear)"/>
<defs>
<linearGradient id="paint0_linear" x1="2458.63" y1="-3.83628e-06" x2="57.9689" y2="2393.56" gradientUnits="userSpaceOnUse">
<stop offset="0.387135" stop-color="#68CDF4"/>
<stop offset="0.703423" stop-color="#21A8F3"/>
</linearGradient>
</defs>
</svg>
