<svg width="289" height="57" viewBox="0 0 289 57" fill="none" xmlns="http://www.w3.org/2000/svg">
<path fill-rule="evenodd" clip-rule="evenodd" d="M58.3022 56.3097V0H49.3138V11.1111C44.3353 4.92791 36.7563 0.926966 28.2377 0.769384C27.8739 0.762511 27.5105 0.762815 27.1476 0.770241C12.103 1.07232 0 13.3625 0 28.4795C0 43.786 12.4084 56.1944 27.7149 56.1944C36.4458 56.1944 44.2337 52.1573 49.3138 45.8479V56.3097H58.3022ZM27.7149 47.184C31.9976 47.184 35.944 45.7447 39.097 43.3235L39.0964 43.3227C43.0331 40.3042 45.6094 35.8454 46.2586 30.9273C46.351 30.2271 46.4033 29.5257 46.4163 28.8263C46.4184 28.711 46.4195 28.5954 46.4195 28.4795C46.4195 28.352 46.4182 28.2248 46.4156 28.098C46.3349 24.1385 44.9976 20.2794 42.5582 17.098C39.5396 13.1614 35.0809 10.5851 30.1628 9.93584C29.4645 9.84367 28.7651 9.79142 28.0678 9.77824C27.9504 9.77607 27.8328 9.77498 27.7149 9.77498C27.5872 9.77498 27.4598 9.77626 27.3327 9.77881C23.3735 9.85971 19.5146 11.197 16.3335 13.6363L16.3329 13.6355C11.8805 17.0546 9.01043 22.4319 9.01043 28.4795C9.01043 38.8097 17.3847 47.184 27.7149 47.184ZM143.779 49.6874C146.969 51.7539 150.78 52.7872 155.212 52.7872C158.225 52.7872 160.825 52.2853 163.011 51.2816C165.256 50.2778 167.147 48.9789 168.683 47.3847C170.219 45.7905 171.431 44.1668 172.317 42.5136H172.494V51.7244H180.737V28.8745C180.737 24.5052 179.791 20.5493 177.901 17.0067C176.069 13.4641 173.41 10.6595 169.924 8.59296C166.497 6.52643 162.42 5.49316 157.693 5.49316C152.73 5.49316 148.476 6.55595 144.931 8.68152C141.386 10.7481 138.668 13.5822 136.777 17.1838C134.886 20.7264 133.941 24.7119 133.941 29.1402C133.941 33.5685 134.798 37.5834 136.511 41.1851C138.225 44.7277 140.647 47.5618 143.779 49.6874ZM165.138 43.5764C162.893 45.0525 160.293 45.7905 157.339 45.7905C154.148 45.7905 151.43 45.0525 149.185 43.5764C146.94 42.1003 145.226 40.1223 144.045 37.6425C142.863 35.1036 142.272 32.299 142.272 29.2287C142.272 26.0994 142.863 23.2653 144.045 20.7264C145.285 18.1876 147.028 16.1801 149.274 14.704C151.578 13.2279 154.326 12.4898 157.516 12.4898C160.529 12.4898 163.159 13.2279 165.404 14.704C167.649 16.121 169.363 18.0695 170.544 20.5493C171.785 23.0292 172.406 25.8337 172.406 28.9631C172.406 32.1514 171.756 35.015 170.456 37.5539C169.215 40.0928 167.442 42.1003 165.138 43.5764ZM70.2051 51.7244V19.398C70.2051 15.383 71.3277 12.2537 73.5729 10.01C75.8773 7.7073 79.0383 6.55595 83.0561 6.55595H92.3621V13.5526H84.5628C82.5539 13.5526 81.0177 14.1431 79.9542 15.3239C78.8906 16.4458 78.3589 17.9809 78.3589 19.9294V51.7244H70.2051ZM121.789 51.7244C117.122 51.7244 112.956 50.7207 109.293 48.7132C105.63 46.7057 102.734 44.0192 100.607 40.6537C98.4802 37.2292 97.4166 33.3913 97.4166 29.1402C97.4166 24.889 98.4802 21.0807 100.607 17.7152C102.734 14.2907 105.63 11.5747 109.293 9.56719C112.956 7.5597 117.122 6.55595 121.789 6.55595H127.107V13.5526H121.523C118.51 13.5526 115.792 14.2612 113.37 15.6782C111.006 17.0362 109.116 18.8961 107.697 21.2578C106.339 23.6196 105.659 26.247 105.659 29.1402C105.659 32.0333 106.339 34.6608 107.697 37.0225C109.116 39.3843 111.006 41.2737 113.37 42.6907C115.792 44.0487 118.51 44.7277 121.523 44.7277H127.107V51.7244H121.789ZM193.719 51.7244V25.5976C193.719 21.5826 194.606 18.0695 196.378 15.0583C198.21 12.047 200.721 9.71479 203.911 8.06157C207.102 6.3493 210.736 5.49316 214.813 5.49316C218.949 5.49316 222.582 6.3493 225.714 8.06157C228.905 9.71479 231.386 12.047 233.159 15.0583C234.99 18.0695 235.906 21.5826 235.906 25.5976V51.7244H227.752V25.6861C227.752 22.9701 227.132 20.6379 225.891 18.6894C224.71 16.682 223.114 15.1468 221.105 14.084C219.156 13.0212 217.058 12.4898 214.813 12.4898C212.568 12.4898 210.44 13.0212 208.432 14.084C206.482 15.1468 204.886 16.682 203.646 18.6894C202.464 20.6379 201.873 22.9701 201.873 25.6861V51.7244H193.719ZM258.513 48.9789C262.353 50.8092 266.785 51.7244 271.807 51.7244H283.417V44.7277H271.63C268.734 44.7277 266.076 44.2554 263.653 43.3107C261.29 42.3069 259.34 40.8604 257.804 38.971C256.267 37.0225 255.352 34.6608 255.056 31.8857H288.735C288.912 30.7048 289.001 29.4059 289.001 27.9888C289.001 23.7967 288.232 20.0179 286.696 16.6524C285.16 13.2279 282.826 10.5119 279.695 8.50439C276.622 6.4969 272.752 5.49316 268.084 5.49316C263.771 5.49316 259.99 6.52643 256.74 8.59296C253.49 10.6595 250.95 13.4936 249.118 17.0953C247.286 20.6379 246.371 24.6529 246.371 29.1402C246.371 33.6865 247.434 37.672 249.561 41.0965C251.747 44.462 254.731 47.0895 258.513 48.9789ZM280.758 26.129H254.967C255.086 23.8853 255.647 21.7302 256.651 19.6637C257.715 17.5381 259.192 15.7963 261.083 14.4383C263.033 13.0212 265.366 12.3127 268.084 12.3127C271.334 12.3127 273.875 13.0803 275.706 14.6154C277.538 16.0915 278.838 17.8923 279.606 20.0179C280.374 22.1435 280.758 24.1805 280.758 26.129Z" fill="url(#paint0_linear)"/>
<defs>
<linearGradient id="paint0_linear" x1="4" y1="56" x2="289" y2="56" gradientUnits="userSpaceOnUse">
<stop stop-color="#013A63"/>
<stop offset="1" stop-color="#68CDF4"/>
</linearGradient>
</defs>
</svg>
