<svg width="756" height="148" viewBox="0 0 756 148" fill="none" xmlns="http://www.w3.org/2000/svg">
<path d="M183.649 135.308V50.7443C183.649 40.2415 186.586 32.0555 192.459 26.1862C198.487 20.1625 206.756 17.1507 217.266 17.1507H241.61V35.4534H221.208C215.953 35.4534 211.934 36.998 209.152 40.087C206.37 43.0217 204.979 47.0374 204.979 52.1344V135.308H183.649Z" fill="#013A63"/>
<path d="M318.589 135.308C306.379 135.308 295.482 132.682 285.899 127.43C276.316 122.179 268.743 115.151 263.179 106.348C257.614 97.3893 254.832 87.3498 254.832 76.2292C254.832 65.1085 257.614 55.1463 263.179 46.3424C268.743 37.3841 276.316 30.2792 285.899 25.0278C295.482 19.7764 306.379 17.1507 318.589 17.1507H332.5V35.4534H317.894C310.011 35.4534 302.901 37.3069 296.564 41.0138C290.382 44.5662 285.436 49.4315 281.726 55.6096C278.171 61.7878 276.394 68.6609 276.394 76.2292C276.394 83.7974 278.171 90.6706 281.726 96.8487C285.436 103.027 290.382 107.969 296.564 111.676C302.901 115.229 310.011 117.005 317.894 117.005H332.5V135.308H318.589Z" fill="#013A63"/>
<path d="M406.02 138.088C394.427 138.088 384.458 135.385 376.112 129.979C367.92 124.419 361.583 117.005 357.101 107.738C352.618 98.316 350.377 87.8132 350.377 76.2292C350.377 64.6451 352.85 54.2195 357.796 44.9523C362.742 35.5306 369.852 28.1169 379.126 22.711C388.399 17.1507 399.528 14.3705 412.511 14.3705C424.876 14.3705 435.541 17.0735 444.506 22.4793C453.625 27.8852 460.58 35.2217 465.372 44.489C470.318 53.7562 472.79 64.1046 472.79 75.5341V135.308H451.229V111.213H450.765C448.447 115.538 445.278 119.785 441.26 123.955C437.241 128.126 432.295 131.524 426.422 134.149C420.703 136.775 413.902 138.088 406.02 138.088ZM411.584 119.785C419.312 119.785 426.113 117.854 431.986 113.993C438.014 110.132 442.651 104.88 445.897 98.2388C449.297 91.5973 450.997 84.1063 450.997 75.7658C450.997 67.5798 449.374 60.2432 446.129 53.7562C443.037 47.2691 438.555 42.1722 432.682 38.4653C426.808 34.6039 419.93 32.6733 412.048 32.6733C403.701 32.6733 396.514 34.6039 390.486 38.4653C384.613 42.3266 380.053 47.578 376.807 54.2195C373.716 60.861 372.17 68.2748 372.17 76.4608C372.17 84.4924 373.716 91.829 376.807 98.4705C379.899 104.958 384.381 110.132 390.254 113.993C396.128 117.854 403.237 119.785 411.584 119.785Z" fill="#013A63"/>
<path d="M506.752 135.308V66.962C506.752 56.4591 509.07 47.2691 513.707 39.392C518.499 31.5149 525.068 25.414 533.414 21.0893C541.76 16.6101 551.266 14.3705 561.931 14.3705C572.75 14.3705 582.256 16.6101 590.447 21.0893C598.794 25.414 605.285 31.5149 609.922 39.392C614.714 47.2691 617.109 56.4591 617.109 66.962V135.308H595.78V67.1936C595.78 60.0888 594.157 53.9879 590.911 48.8909C587.82 43.6395 583.647 39.6237 578.392 36.8435C573.291 34.0633 567.804 32.6733 561.931 32.6733C556.057 32.6733 550.493 34.0633 545.238 36.8435C540.137 39.6237 535.964 43.6395 532.718 48.8909C529.627 53.9879 528.082 60.0888 528.082 67.1936V135.308H506.752Z" fill="#013A63"/>
<path d="M711.022 135.308C697.885 135.308 686.292 132.914 676.246 128.126C666.354 123.183 658.548 116.31 652.83 107.506C647.265 98.5477 644.483 88.1221 644.483 76.2292C644.483 64.4907 646.879 53.9879 651.67 44.7206C656.462 35.299 663.108 27.8852 671.609 22.4793C680.11 17.0735 690.002 14.3705 701.285 14.3705C713.495 14.3705 723.619 16.9962 731.656 22.2476C739.848 27.4991 745.953 34.6039 749.972 43.5622C753.991 52.3661 756 62.2511 756 73.2173C756 76.9242 755.768 80.3222 755.304 83.4113H667.204C667.977 90.6706 670.372 96.8487 674.391 101.946C678.41 106.888 683.51 110.672 689.693 113.298C696.03 115.769 702.985 117.005 710.559 117.005H741.394V135.308H711.022ZM666.972 68.352H734.439C734.439 63.2551 733.434 57.9264 731.425 52.3661C729.415 46.8058 726.015 42.0949 721.223 38.2336C716.432 34.2178 709.786 32.2099 701.285 32.2099C694.175 32.2099 688.07 34.0633 682.969 37.7702C678.023 41.3227 674.159 45.879 671.377 51.4394C668.75 56.8452 667.281 62.4828 666.972 68.352Z" fill="#013A63"/>
<path d="M145 74.5C145 114.541 112.541 147 72.5 147C32.4594 147 0 114.541 0 74.5C0 34.4594 32.4594 2 72.5 2C112.541 2 145 34.4594 145 74.5ZM23.5705 74.5C23.5705 101.523 45.477 123.429 72.5 123.429C99.523 123.429 121.429 101.523 121.429 74.5C121.429 47.477 99.523 25.5705 72.5 25.5705C45.477 25.5705 23.5705 47.477 23.5705 74.5Z" fill="#013A63"/>
<path d="M116.615 132.033C131.874 120.333 141.86 103.051 144.376 83.988C146.893 64.9252 141.733 45.6435 130.033 30.3847C118.333 15.1259 101.051 5.1399 81.988 2.62352C62.9252 0.10715 43.6435 5.26652 28.3847 16.9666L42.7271 35.6714C53.025 27.7751 66.038 24.2931 78.9033 25.9913C91.7686 27.6896 103.432 34.4291 111.329 44.7271C119.225 55.025 122.707 68.038 121.009 80.9033C119.31 93.7686 112.571 105.432 102.273 113.329L116.615 132.033Z" fill="#68CDF4"/>
<path fill-rule="evenodd" clip-rule="evenodd" d="M152.513 0V147.302H129V0L152.513 0Z" fill="#013A63"/>
</svg>
