<svg width="458" height="90" viewBox="0 0 458 90" fill="none" xmlns="http://www.w3.org/2000/svg">
<path d="M111.258 81.9721V30.742C111.258 24.3791 113.037 19.4199 116.596 15.8642C120.247 12.2149 125.257 10.3903 131.624 10.3903H146.372V21.4784H134.012C130.828 21.4784 128.394 22.4141 126.708 24.2856C125.023 26.0634 124.18 28.4963 124.18 31.5841V81.9721H111.258Z" fill="#013A63"/>
<path d="M193.008 81.9721C185.61 81.9721 179.009 80.3814 173.204 77.2C167.398 74.0186 162.81 69.7611 159.439 64.4275C156.068 59.0004 154.383 52.9183 154.383 46.1812C154.383 39.4441 156.068 33.4088 159.439 28.0752C162.81 22.6481 167.398 18.3438 173.204 15.1624C179.009 11.981 185.61 10.3903 193.008 10.3903H201.435V21.4784H192.586C187.811 21.4784 183.504 22.6013 179.664 24.847C175.919 26.9991 172.923 29.9466 170.675 33.6895C168.522 37.4323 167.445 41.5962 167.445 46.1812C167.445 50.7662 168.522 54.9301 170.675 58.6729C172.923 62.4158 175.919 65.41 179.664 67.6557C183.504 69.8079 187.811 70.8839 192.586 70.8839H201.435V81.9721H193.008Z" fill="#013A63"/>
<path d="M245.975 83.6564C238.952 83.6564 232.912 82.0189 227.856 78.7439C222.893 75.3754 219.054 70.8839 216.339 65.2697C213.623 59.5619 212.266 53.199 212.266 46.1812C212.266 39.1634 213.764 32.8473 216.76 27.2331C219.756 21.5252 224.064 17.0338 229.682 13.7588C235.3 10.3903 242.042 8.70599 249.908 8.70599C257.399 8.70599 263.859 10.3435 269.29 13.6185C274.815 16.8935 279.029 21.3381 281.931 26.9523C284.928 32.5666 286.426 38.8359 286.426 45.7601V81.9721H273.364V67.375H273.083C271.678 69.995 269.759 72.5682 267.324 75.0946C264.889 77.6211 261.893 79.6796 258.335 81.2703C254.87 82.861 250.75 83.6564 245.975 83.6564ZM249.346 72.5682C254.028 72.5682 258.148 71.3986 261.706 69.0593C265.358 66.72 268.167 63.5386 270.133 59.5151C272.193 55.4915 273.223 50.9533 273.223 45.9005C273.223 40.9412 272.24 36.4966 270.274 32.5666C268.401 28.6366 265.685 25.5488 262.127 23.3031C258.569 20.9638 254.402 19.7942 249.627 19.7942C244.57 19.7942 240.216 20.9638 236.564 23.3031C233.006 25.6424 230.244 28.8238 228.277 32.8473C226.405 36.8709 225.468 41.3623 225.468 46.3216C225.468 51.1872 226.405 55.6319 228.277 59.6554C230.15 63.5854 232.866 66.72 236.424 69.0593C239.982 71.3986 244.289 72.5682 249.346 72.5682Z" fill="#013A63"/>
<path d="M307 81.9721V40.5669C307 34.2041 308.405 28.6366 311.214 23.8645C314.117 19.0924 318.096 15.3963 323.153 12.7763C328.209 10.0628 333.968 8.70599 340.429 8.70599C346.983 8.70599 352.742 10.0628 357.705 12.7763C362.761 15.3963 366.694 19.0924 369.503 23.8645C372.406 28.6366 373.857 34.2041 373.857 40.5669V81.9721H360.935V40.7073C360.935 36.403 359.952 32.707 357.986 29.6191C356.113 26.4377 353.585 24.0049 350.401 22.3206C347.311 20.6363 343.987 19.7942 340.429 19.7942C336.871 19.7942 333.5 20.6363 330.316 22.3206C327.226 24.0049 324.698 26.4377 322.732 29.6191C320.859 32.707 319.922 36.403 319.922 40.7073V81.9721H307Z" fill="#013A63"/>
<path d="M430.752 81.9721C422.792 81.9721 415.77 80.5218 409.683 77.6211C403.691 74.6268 398.962 70.4629 395.497 65.1293C392.126 59.7022 390.441 53.3862 390.441 46.1812C390.441 39.0698 391.892 32.707 394.795 27.0927C397.698 21.3849 401.724 16.8935 406.874 13.6185C412.024 10.3435 418.017 8.70599 424.852 8.70599C432.25 8.70599 438.383 10.2967 443.252 13.4781C448.215 16.6595 451.914 20.9638 454.348 26.3909C456.783 31.7245 458 37.713 458 44.3566C458 46.6023 457.86 48.6608 457.579 50.5323H404.206C404.674 54.9301 406.125 58.6729 408.56 61.7608C410.994 64.755 414.084 67.0475 417.83 68.6382C421.669 70.1354 425.883 70.8839 430.471 70.8839H449.151V81.9721H430.752ZM404.065 41.4091H444.938C444.938 38.3212 444.329 35.093 443.112 31.7245C441.894 28.3559 439.834 25.502 436.932 23.1627C434.029 20.7299 430.003 19.5135 424.852 19.5135C420.545 19.5135 416.847 20.6363 413.757 22.882C410.76 25.0341 408.419 27.7945 406.734 31.163C405.142 34.438 404.252 37.8534 404.065 41.4091Z" fill="#013A63"/>
<path d="M87.8439 45.1336C87.8439 69.3911 68.1794 89.0556 43.922 89.0556C19.6645 89.0556 0 69.3911 0 45.1336C0 20.8762 19.6645 1.21167 43.922 1.21167C68.1794 1.21167 87.8439 20.8762 87.8439 45.1336ZM14.2795 45.1336C14.2795 61.5047 27.5509 74.7761 43.922 74.7761C60.293 74.7761 73.5644 61.5047 73.5644 45.1336C73.5644 28.7626 60.293 15.4912 43.922 15.4912C27.5509 15.4912 14.2795 28.7626 14.2795 45.1336Z" fill="#013A63"/>
<path d="M70.6479 79.9885C79.892 72.9003 85.9417 62.4303 87.4662 50.8816C88.9906 39.333 85.865 27.6518 78.7768 18.4077C71.6887 9.16359 61.2186 3.11388 49.67 1.58941C38.1213 0.0649436 26.4401 3.19059 17.196 10.2788L25.8849 21.6105C32.1236 16.8267 40.0072 14.7173 47.8012 15.7461C55.5953 16.775 62.6614 20.8578 67.4451 27.0966C72.2289 33.3353 74.3383 41.2188 73.3095 49.0129C72.2806 56.807 68.1977 63.8731 61.959 68.6568L70.6479 79.9885Z" fill="#68CDF4"/>
<path fill-rule="evenodd" clip-rule="evenodd" d="M92.3954 0V89.2383H78.1508V0L92.3954 0Z" fill="#013A63"/>
</svg>
